<svg width="80" height="73" viewBox="0 0 80 73" fill="none" xmlns="http://www.w3.org/2000/svg">
<path d="M28.9695 29.7994C27.7204 31.6516 27 33.8324 27 36.1667C27 42.8861 32.9695 48.3333 40.3333 48.3333C47.6971 48.3333 53.6667 42.8861 53.6667 36.1667C53.6667 29.4472 47.6971 24 40.3333 24C39.2727 24 38.2409 24.113 37.2518 24.3266" stroke="#F74107" stroke-width="3" stroke-linecap="round" stroke-linejoin="round"/>
<path d="M32 27.8727C32.8033 27.8727 33.4545 27.2784 33.4545 26.5454C33.4545 25.8124 32.8033 25.2181 32 25.2181C31.1966 25.2181 30.5454 25.8124 30.5454 26.5454C30.5454 27.2784 31.1966 27.8727 32 27.8727Z" fill="#F74107"/>
<path d="M44.6667 32.3938C40.3767 37.4632 38.2316 39.998 38.2316 39.998C38.2316 39.998 37.0433 38.8716 34.6667 36.619" stroke="#F74107" stroke-width="3" stroke-linecap="round" stroke-linejoin="round"/>
<path d="M20.0001 6.08337C12.6711 6.08337 6.66675 11.5623 6.66675 18.25V24.3334C6.66675 25.1401 7.01794 25.9138 7.64306 26.4842C8.26818 27.0546 9.11603 27.375 10.0001 27.375C10.8841 27.375 11.732 27.0546 12.3571 26.4842C12.9822 25.9138 13.3334 25.1401 13.3334 24.3334V18.25C13.3334 14.8273 16.2491 12.1667 20.0001 12.1667H26.6667C27.5508 12.1667 28.3987 11.8463 29.0238 11.2759C29.6489 10.7054 30.0001 9.93174 30.0001 9.12504C30.0001 8.31834 29.6489 7.54472 29.0238 6.9743C28.3987 6.40388 27.5508 6.08337 26.6667 6.08337H20.0001Z" fill="#F74107"/>
<path d="M10.0001 45.625C9.11603 45.625 8.26818 45.9455 7.64306 46.5159C7.01794 47.0864 6.66675 47.86 6.66675 48.6667V54.75C6.66675 61.4377 12.6711 66.9167 20.0001 66.9167H26.6667C27.5508 66.9167 28.3987 66.5963 29.0238 66.0258C29.6489 65.4554 30.0001 64.6817 30.0001 63.875C30.0001 63.0683 29.6489 62.2947 29.0238 61.7243C28.3987 61.1538 27.5508 60.8333 26.6667 60.8333H20.0001C16.2491 60.8333 13.3334 58.1728 13.3334 54.75V48.6667C13.3334 47.86 12.9822 47.0864 12.3571 46.5159C11.732 45.9455 10.8841 45.625 10.0001 45.625Z" fill="#F74107"/>
<path d="M70 45.625C69.1159 45.625 68.2681 45.9455 67.643 46.5159C67.0179 47.0864 66.6667 47.86 66.6667 48.6667V54.75C66.6667 58.1728 63.751 60.8333 60 60.8333H53.3333C52.4493 60.8333 51.6014 61.1538 50.9763 61.7243C50.3512 62.2947 50 63.0683 50 63.875C50 64.6817 50.3512 65.4554 50.9763 66.0258C51.6014 66.5963 52.4493 66.9167 53.3333 66.9167H60C67.329 66.9167 73.3333 61.4377 73.3333 54.75V48.6667C73.3333 47.86 72.9821 47.0864 72.357 46.5159C71.7319 45.9455 70.8841 45.625 70 45.625Z" fill="#F74107"/>
<path d="M53.3333 6.08337C52.4493 6.08337 51.6014 6.40388 50.9763 6.9743C50.3512 7.54472 50 8.31834 50 9.12504C50 9.93174 50.3512 10.7054 50.9763 11.2759C51.6014 11.8463 52.4493 12.1667 53.3333 12.1667H60C63.751 12.1667 66.6667 14.8273 66.6667 18.25V24.3334C66.6667 25.1401 67.0179 25.9138 67.643 26.4842C68.2681 27.0546 69.1159 27.375 70 27.375C70.8841 27.375 71.7319 27.0546 72.357 26.4842C72.9821 25.9138 73.3333 25.1401 73.3333 24.3334V18.25C73.3333 11.5623 67.329 6.08337 60 6.08337H53.3333Z" fill="#F74107"/>
</svg>
